<svg width="80" height="43" viewBox="0 0 80 43" fill="none" xmlns="http://www.w3.org/2000/svg">
<mask id="path-1-inside-1" fill="white">
<path fill-rule="evenodd" clip-rule="evenodd" d="M52.3857 12.5252C52.3857 15.9914 50.986 19.1296 48.7306 21.399C55.7175 24.3589 61.6784 31.884 61.6784 39.1543C61.6784 41.2751 59.9723 43 57.875 43H22.1237C20.0223 43 18.3163 41.2751 18.3163 39.1543C18.3163 31.8832 24.2775 24.358 31.2677 21.3986C29.0126 19.1291 27.613 15.991 27.613 12.5252C27.613 5.61618 33.1671 0 39.9995 0C46.8319 0 52.3857 5.61618 52.3857 12.5252ZM47.4329 12.5252C47.4329 8.38145 44.097 5.00847 39.9995 5.00847C35.9016 5.00847 32.5661 8.38145 32.5661 12.5252C32.5661 16.6692 35.9016 20.0421 39.9995 20.0421C44.097 20.0421 47.4329 16.6692 47.4329 12.5252ZM37.2162 25.0505C31.0817 25.0505 24.1363 31.7107 23.3458 37.9916H56.6488C55.8583 31.7107 48.9168 25.0505 42.7824 25.0505H37.2162ZM15.0337 29.2487H16.9338C18.8749 25.6573 21.7657 22.3993 25.2349 20.0187C24.0789 17.7217 23.5001 15.1745 23.5001 12.5431C23.5001 12.0837 23.5001 11.6241 23.5827 11.2066C21.8484 9.78648 19.618 8.9096 17.1814 8.9096C11.6472 8.9096 7.10366 13.4617 7.10366 19.1003C7.10366 21.564 8.0535 23.8197 9.49945 25.6156C4.25413 28.121 0 33.8427 0 39.4813C0 41.4021 1.56948 42.9891 3.511 42.9891H15.1572C14.5381 41.8202 14.166 40.5255 14.166 39.1468C14.166 38.7709 14.166 38.3951 14.2073 37.9774H5.12129C6.02979 33.6339 10.8209 29.2487 15.0337 29.2487ZM17.1814 13.9215C19.9901 13.9215 22.3027 16.2186 22.3027 19.1003C22.3027 21.9399 19.9901 24.2369 17.1814 24.2369C14.3727 24.2369 12.0596 21.9399 12.0596 19.1003C12.0596 16.2186 14.3727 13.9215 17.1814 13.9215ZM72.8966 19.1003C72.8966 21.564 71.9463 23.8197 70.5012 25.6156C75.7464 28.121 80 33.8427 80 39.4813C80 41.4021 78.4306 42.9891 76.4898 42.9891H64.8012C65.4624 41.8619 65.7924 40.5255 65.7924 39.1468C65.7924 38.7709 65.7924 38.3951 65.7511 37.9774H74.8787C73.9705 33.6339 69.1791 29.2487 64.9664 29.2487H63.1083C61.1258 25.6573 58.2348 22.3993 54.7655 20.0187C55.9219 17.7217 56.4997 15.1745 56.4997 12.5431C56.4997 12.0837 56.4997 11.6241 56.4175 11.2066C58.1521 9.78648 60.382 8.9096 62.8188 8.9096C68.3535 8.9096 72.8966 13.4617 72.8966 19.1003ZM57.6974 19.1003C57.6974 21.9399 60.0107 24.2369 62.8188 24.2369C65.6276 24.2369 67.9401 21.9399 67.9401 19.1003C67.9401 16.2186 65.6276 13.9215 62.8188 13.9215C60.0107 13.9215 57.6974 16.2186 57.6974 19.1003Z"/>
</mask>
<path fill-rule="evenodd" clip-rule="evenodd" d="M52.3857 12.5252C52.3857 15.9914 50.986 19.1296 48.7306 21.399C55.7175 24.3589 61.6784 31.884 61.6784 39.1543C61.6784 41.2751 59.9723 43 57.875 43H22.1237C20.0223 43 18.3163 41.2751 18.3163 39.1543C18.3163 31.8832 24.2775 24.358 31.2677 21.3986C29.0126 19.1291 27.613 15.991 27.613 12.5252C27.613 5.61618 33.1671 0 39.9995 0C46.8319 0 52.3857 5.61618 52.3857 12.5252ZM47.4329 12.5252C47.4329 8.38145 44.097 5.00847 39.9995 5.00847C35.9016 5.00847 32.5661 8.38145 32.5661 12.5252C32.5661 16.6692 35.9016 20.0421 39.9995 20.0421C44.097 20.0421 47.4329 16.6692 47.4329 12.5252ZM37.2162 25.0505C31.0817 25.0505 24.1363 31.7107 23.3458 37.9916H56.6488C55.8583 31.7107 48.9168 25.0505 42.7824 25.0505H37.2162ZM15.0337 29.2487H16.9338C18.8749 25.6573 21.7657 22.3993 25.2349 20.0187C24.0789 17.7217 23.5001 15.1745 23.5001 12.5431C23.5001 12.0837 23.5001 11.6241 23.5827 11.2066C21.8484 9.78648 19.618 8.9096 17.1814 8.9096C11.6472 8.9096 7.10366 13.4617 7.10366 19.1003C7.10366 21.564 8.0535 23.8197 9.49945 25.6156C4.25413 28.121 0 33.8427 0 39.4813C0 41.4021 1.56948 42.9891 3.511 42.9891H15.1572C14.5381 41.8202 14.166 40.5255 14.166 39.1468C14.166 38.7709 14.166 38.3951 14.2073 37.9774H5.12129C6.02979 33.6339 10.8209 29.2487 15.0337 29.2487ZM17.1814 13.9215C19.9901 13.9215 22.3027 16.2186 22.3027 19.1003C22.3027 21.9399 19.9901 24.2369 17.1814 24.2369C14.3727 24.2369 12.0596 21.9399 12.0596 19.1003C12.0596 16.2186 14.3727 13.9215 17.1814 13.9215ZM72.8966 19.1003C72.8966 21.564 71.9463 23.8197 70.5012 25.6156C75.7464 28.121 80 33.8427 80 39.4813C80 41.4021 78.4306 42.9891 76.4898 42.9891H64.8012C65.4624 41.8619 65.7924 40.5255 65.7924 39.1468C65.7924 38.7709 65.7924 38.3951 65.7511 37.9774H74.8787C73.9705 33.6339 69.1791 29.2487 64.9664 29.2487H63.1083C61.1258 25.6573 58.2348 22.3993 54.7655 20.0187C55.9219 17.7217 56.4997 15.1745 56.4997 12.5431C56.4997 12.0837 56.4997 11.6241 56.4175 11.2066C58.1521 9.78648 60.382 8.9096 62.8188 8.9096C68.3535 8.9096 72.8966 13.4617 72.8966 19.1003ZM57.6974 19.1003C57.6974 21.9399 60.0107 24.2369 62.8188 24.2369C65.6276 24.2369 67.9401 21.9399 67.9401 19.1003C67.9401 16.2186 65.6276 13.9215 62.8188 13.9215C60.0107 13.9215 57.6974 16.2186 57.6974 19.1003Z" fill="#F8B133"/>
<path d="M48.7306 21.399L47.5957 20.2712L45.9278 21.9494L48.1064 22.8723L48.7306 21.399ZM31.2677 21.3986L31.8915 22.872L34.0706 21.9494L32.4027 20.2708L31.2677 21.3986ZM23.3458 37.9916L21.7583 37.7918L21.5318 39.5916H23.3458V37.9916ZM56.6488 37.9916V39.5916H58.4628L58.2363 37.7918L56.6488 37.9916ZM16.9338 29.2487V30.8487H17.8878L18.3414 30.0094L16.9338 29.2487ZM25.2349 20.0187L26.1402 21.338L27.2922 20.5475L26.6641 19.2994L25.2349 20.0187ZM23.5827 11.2066L25.1523 11.5174L25.3386 10.5764L24.5964 9.96866L23.5827 11.2066ZM9.49945 25.6156L10.1891 27.0593L12.0142 26.1876L10.7457 24.6121L9.49945 25.6156ZM15.1572 42.9891V44.5891H17.8151L16.5711 42.2403L15.1572 42.9891ZM14.2073 37.9774L15.7995 38.135L15.9735 36.3774H14.2073V37.9774ZM5.12129 37.9774L3.55518 37.6498L3.152 39.5774H5.12129V37.9774ZM70.5012 25.6156L69.2546 24.6125L67.987 26.1878L69.8115 27.0593L70.5012 25.6156ZM64.8012 42.9891L63.4211 42.1796L62.0077 44.5891H64.8012V42.9891ZM65.7511 37.9774V36.3774H63.9851L64.1589 38.1349L65.7511 37.9774ZM74.8787 37.9774V39.5774H76.8478L76.4448 37.6499L74.8787 37.9774ZM63.1083 29.2487L61.7075 30.0219L62.1639 30.8487H63.1083V29.2487ZM54.7655 20.0187L53.3364 19.2992L52.708 20.5474L53.8602 21.338L54.7655 20.0187ZM56.4175 11.2066L55.404 9.96857L54.6626 10.5755L54.8476 11.5156L56.4175 11.2066ZM50.7857 12.5252C50.7857 15.5523 49.565 18.2896 47.5957 20.2712L49.8654 22.5269C52.407 19.9695 53.9857 16.4304 53.9857 12.5252H50.7857ZM48.1064 22.8723C51.3173 24.2325 54.3345 26.6655 56.5433 29.6186C58.7556 32.5763 60.0784 35.9472 60.0784 39.1543H63.2784C63.2784 35.0911 61.6208 31.0643 59.1058 27.7019C56.5874 24.3349 53.1307 21.5254 49.3547 19.9258L48.1064 22.8723ZM60.0784 39.1543C60.0784 40.4081 59.0721 41.4 57.875 41.4V44.6C60.8725 44.6 63.2784 42.1421 63.2784 39.1543H60.0784ZM57.875 41.4H22.1237V44.6H57.875V41.4ZM22.1237 41.4C20.9215 41.4 19.9163 40.407 19.9163 39.1543H16.7163C16.7163 42.1432 19.1232 44.6 22.1237 44.6V41.4ZM19.9163 39.1543C19.9163 35.9468 21.2392 32.5757 23.4518 29.618C25.661 26.665 28.6791 24.2321 31.8915 22.872L30.6439 19.9252C26.8662 21.5246 23.4085 24.334 20.8895 27.7011C18.374 31.0636 16.7163 35.0907 16.7163 39.1543H19.9163ZM32.4027 20.2708C30.4336 18.2893 29.213 15.5519 29.213 12.5252H26.013C26.013 16.43 27.5916 19.969 30.1328 22.5264L32.4027 20.2708ZM29.213 12.5252C29.213 6.483 34.0675 1.6 39.9995 1.6V-1.6C32.2667 -1.6 26.013 4.74937 26.013 12.5252H29.213ZM39.9995 1.6C45.9315 1.6 50.7857 6.48295 50.7857 12.5252H53.9857C53.9857 4.74942 47.7324 -1.6 39.9995 -1.6V1.6ZM49.0329 12.5252C49.0329 7.51462 44.9974 3.40847 39.9995 3.40847V6.60847C43.1966 6.60847 45.8329 9.24827 45.8329 12.5252H49.0329ZM39.9995 3.40847C35.0012 3.40847 30.9661 7.51468 30.9661 12.5252H34.1661C34.1661 9.24822 36.8021 6.60847 39.9995 6.60847V3.40847ZM30.9661 12.5252C30.9661 17.536 35.0012 21.6421 39.9995 21.6421V18.4421C36.8021 18.4421 34.1661 15.8025 34.1661 12.5252H30.9661ZM39.9995 21.6421C44.9974 21.6421 49.0329 17.536 49.0329 12.5252H45.8329C45.8329 15.8024 43.1966 18.4421 39.9995 18.4421V21.6421ZM37.2162 23.4505C33.6054 23.4505 29.9625 25.3808 27.1801 28.0009C24.3903 30.6279 22.2125 34.1834 21.7583 37.7918L24.9333 38.1914C25.2696 35.5189 26.9597 32.6038 29.3739 30.3305C31.7955 28.0502 34.6926 26.6505 37.2162 26.6505V23.4505ZM23.3458 39.5916H56.6488V36.3916H23.3458V39.5916ZM58.2363 37.7918C57.7822 34.1837 55.6055 30.6282 52.8167 28.0011C50.0352 25.3809 46.3933 23.4505 42.7824 23.4505V26.6505C45.3059 26.6505 48.2019 28.0501 50.6225 30.3303C53.0356 32.6035 54.7249 35.5186 55.0613 38.1914L58.2363 37.7918ZM42.7824 23.4505H37.2162V26.6505H42.7824V23.4505ZM15.0337 30.8487H16.9338V27.6487H15.0337V30.8487ZM18.3414 30.0094C20.1635 26.6381 22.8835 23.5727 26.1402 21.338L24.3296 18.6995C20.648 21.2258 17.5862 24.6765 15.5263 28.4879L18.3414 30.0094ZM26.6641 19.2994C25.6265 17.2377 25.1001 14.9386 25.1001 12.5431H21.9001C21.9001 15.4103 22.5312 18.2057 23.8057 20.738L26.6641 19.2994ZM25.1001 12.5431C25.1001 12.0479 25.1057 11.7525 25.1523 11.5174L22.0132 10.8958C21.8944 11.4957 21.9001 12.1195 21.9001 12.5431H25.1001ZM24.5964 9.96866C22.5927 8.32793 20.0083 7.3096 17.1814 7.3096V10.5096C19.2277 10.5096 21.1042 11.245 22.5691 12.4445L24.5964 9.96866ZM17.1814 7.3096C10.7511 7.3096 5.50366 12.5906 5.50366 19.1003H8.70366C8.70366 14.3329 12.5433 10.5096 17.1814 10.5096V7.3096ZM5.50366 19.1003C5.50366 21.9846 6.61576 24.5853 8.2532 26.619L10.7457 24.6121C9.49124 23.0541 8.70366 21.1434 8.70366 19.1003H5.50366ZM8.80984 24.1718C3.1255 26.887 -1.6 33.1062 -1.6 39.4813H1.6C1.6 34.5793 5.38277 29.3551 10.1891 27.0593L8.80984 24.1718ZM-1.6 39.4813C-1.6 42.2815 0.681575 44.5891 3.511 44.5891V41.3891C2.45739 41.3891 1.6 40.5227 1.6 39.4813H-1.6ZM3.511 44.5891H15.1572V41.3891H3.511V44.5891ZM16.5711 42.2403C16.0573 41.2702 15.766 40.2306 15.766 39.1468H12.566C12.566 40.8203 13.0188 42.3701 13.7432 43.738L16.5711 42.2403ZM15.766 39.1468C15.766 38.7643 15.767 38.4633 15.7995 38.135L12.6151 37.8198C12.5649 38.3268 12.566 38.7776 12.566 39.1468H15.766ZM14.2073 36.3774H5.12129V39.5774H14.2073V36.3774ZM6.6874 38.305C7.05548 36.5452 8.25515 34.6483 9.90336 33.1783C11.5618 31.6991 13.4495 30.8487 15.0337 30.8487V27.6487C12.405 27.6487 9.79079 28.9908 7.77338 30.7902C5.74573 32.5986 4.0956 35.0661 3.55518 37.6498L6.6874 38.305ZM17.1814 15.5215C19.098 15.5215 20.7027 17.0937 20.7027 19.1003H23.9027C23.9027 15.3434 20.8822 12.3215 17.1814 12.3215V15.5215ZM20.7027 19.1003C20.7027 21.0562 19.1065 22.6369 17.1814 22.6369V25.8369C20.8737 25.8369 23.9027 22.8236 23.9027 19.1003H20.7027ZM17.1814 22.6369C15.2561 22.6369 13.6596 21.056 13.6596 19.1003H10.4596C10.4596 22.8238 13.4893 25.8369 17.1814 25.8369V22.6369ZM13.6596 19.1003C13.6596 17.0939 15.2646 15.5215 17.1814 15.5215V12.3215C13.4808 12.3215 10.4596 15.3432 10.4596 19.1003H13.6596ZM71.2966 19.1003C71.2966 21.1433 70.5087 23.0541 69.2546 24.6125L71.7477 26.6186C73.3839 24.5853 74.4966 21.9847 74.4966 19.1003H71.2966ZM69.8115 27.0593C74.6177 29.355 78.4 34.5792 78.4 39.4813H81.6C81.6 33.1063 76.8751 26.887 71.1908 24.1718L69.8115 27.0593ZM78.4 39.4813C78.4 40.523 77.5424 41.3891 76.4898 41.3891V44.5891C79.3187 44.5891 81.6 42.2812 81.6 39.4813H78.4ZM76.4898 41.3891H64.8012V44.5891H76.4898V41.3891ZM66.1813 43.7987C67.0033 42.3973 67.3924 40.7749 67.3924 39.1468H64.1924C64.1924 40.276 63.9216 41.3265 63.4211 42.1796L66.1813 43.7987ZM67.3924 39.1468C67.3924 38.7776 67.3935 38.3269 67.3434 37.82L64.1589 38.1349C64.1914 38.4632 64.1924 38.7643 64.1924 39.1468H67.3924ZM65.7511 39.5774H74.8787V36.3774H65.7511V39.5774ZM76.4448 37.6499C75.9045 35.0662 74.2544 32.5986 72.2267 30.7901C70.2093 28.9908 67.595 27.6487 64.9664 27.6487V30.8487C66.5505 30.8487 68.4383 31.6991 70.0967 33.1783C71.745 34.6483 72.9446 36.5452 73.3125 38.3049L76.4448 37.6499ZM64.9664 27.6487H63.1083V30.8487H64.9664V27.6487ZM64.509 28.4754C62.4108 24.6743 59.3532 21.2263 55.6707 18.6994L53.8602 21.338C57.1163 23.5723 59.8409 26.6403 61.7075 30.0219L64.509 28.4754ZM56.1946 20.7382C57.4697 18.2054 58.0997 15.4099 58.0997 12.5431H54.8997C54.8997 14.939 54.3741 17.2379 53.3364 19.2992L56.1946 20.7382ZM58.0997 12.5431C58.0997 12.1193 58.1053 11.4965 57.9874 10.8976L54.8476 11.5156C54.8941 11.7517 54.8997 12.0481 54.8997 12.5431H58.0997ZM57.4311 12.4446C58.8964 11.245 60.7724 10.5096 62.8188 10.5096V7.3096C59.9915 7.3096 57.4079 8.328 55.404 9.96857L57.4311 12.4446ZM62.8188 10.5096C67.4574 10.5096 71.2966 14.3328 71.2966 19.1003H74.4966C74.4966 12.5906 69.2497 7.3096 62.8188 7.3096V10.5096ZM56.0974 19.1003C56.0974 22.8237 59.1272 25.8369 62.8188 25.8369V22.6369C60.8942 22.6369 59.2974 21.056 59.2974 19.1003H56.0974ZM62.8188 25.8369C66.5113 25.8369 69.5401 22.8236 69.5401 19.1003H66.3401C66.3401 21.0562 64.744 22.6369 62.8188 22.6369V25.8369ZM69.5401 19.1003C69.5401 15.3434 66.5198 12.3215 62.8188 12.3215V15.5215C64.7355 15.5215 66.3401 17.0937 66.3401 19.1003H69.5401ZM62.8188 12.3215C59.1187 12.3215 56.0974 15.3433 56.0974 19.1003H59.2974C59.2974 17.0939 60.9027 15.5215 62.8188 15.5215V12.3215Z" fill="#222222" mask="url(#path-1-inside-1)"/>
</svg>
