<svg width="87" height="87" viewBox="0 0 87 87" fill="none" xmlns="http://www.w3.org/2000/svg">
<mask id="path-1-inside-1" fill="white">
<path fill-rule="evenodd" clip-rule="evenodd" d="M0 43.4979C0 19.5128 19.5128 0 43.5022 0C67.4873 0 87 19.5128 87 43.4979C87 67.4873 67.4873 87 43.5022 87C19.5128 87 0 67.4873 0 43.4979ZM4 41.9978C4 63.5022 21.4978 81 43.0022 81C64.5066 81 82 63.5022 82 41.9978C82 20.4935 64.5066 3 43.0022 3C21.4978 3 4 20.4935 4 41.9978ZM36.1763 42.5682C37.9272 38.8135 42.4101 37.1818 46.1645 38.9325C46.9495 39.2986 47.6173 39.8053 48.2053 40.3789L60.3342 33.6324C61.5877 32.9343 63.1735 33.3846 63.8677 34.6365C64.5619 35.8884 64.1226 37.4606 62.8636 38.1701L50.4405 45.0803C50.5569 46.3577 50.3798 47.6779 49.8001 48.9211C48.0494 52.6755 43.5665 54.3071 39.8117 52.5562C36.0573 50.8055 34.4256 46.3226 36.1763 42.5682ZM41.641 48.6332C43.235 49.3764 45.1339 48.6853 45.877 47.0917C46.6202 45.4978 45.9291 43.5989 44.3351 42.8556C42.7416 42.1125 40.8427 42.8037 40.0994 44.3976C39.3563 45.9912 40.0475 47.8901 41.641 48.6332ZM43.5009 16.3944C44.935 16.3944 46.0977 15.2317 46.0977 13.7971C46.0977 12.3627 44.935 11.2 43.5009 11.2C42.0664 11.2 40.9033 12.3627 40.9033 13.7971C40.9033 15.2317 42.0664 16.3944 43.5009 16.3944ZM30.8988 16.4784C31.6163 17.7207 31.1904 19.309 29.9487 20.0261C28.7059 20.7434 27.1176 20.3178 26.4005 19.0755C25.6835 17.8335 26.1094 16.2449 27.3511 15.5278C28.5934 14.8105 30.1822 15.2362 30.8988 16.4784ZM19.0767 26.399C17.8344 25.682 16.2461 26.1073 15.5285 27.3496C14.812 28.5919 15.2368 30.1803 16.4796 30.8976C17.7214 31.6146 19.3097 31.189 20.0273 29.947C20.7443 28.7047 20.319 27.1163 19.0767 26.399ZM11.2016 43.4996C11.2016 42.0651 12.3646 40.9024 13.7987 40.9024C15.2333 40.9024 16.3963 42.0651 16.3963 43.4996C16.3963 44.9341 15.2333 46.0968 13.7987 46.0968C12.3646 46.0968 11.2016 44.9341 11.2016 43.4996ZM73.2024 40.9024C71.7683 40.9024 70.6061 42.0651 70.6061 43.4996C70.6061 44.9341 71.7683 46.0968 73.2024 46.0968C74.6369 46.0968 75.8 44.9341 75.8 43.4996C75.8 42.0651 74.6369 40.9024 73.2024 40.9024ZM67.9249 26.399C69.1672 25.682 70.7554 26.1073 71.4727 27.3496C72.1904 28.5919 71.7644 30.1803 70.5225 30.8976C69.2798 31.6146 67.6916 31.189 66.9743 29.947C66.2575 28.7047 66.6826 27.1163 67.9249 26.399ZM59.6503 15.5278C58.4084 14.8105 56.8202 15.2362 56.1025 16.4784C55.3857 17.7207 55.8107 19.309 57.0535 20.0261C58.2954 20.7434 59.8836 20.3178 60.6013 19.0755C61.3185 17.8335 60.893 16.2449 59.6503 15.5278ZM31.247 65.9762H55.7549C57.189 65.9762 58.3517 67.1393 58.3517 68.5733C58.3517 70.0079 57.189 71.1705 55.7549 71.1705H31.247C29.8124 71.1705 28.6499 70.0079 28.6499 68.5733C28.6499 67.1393 29.8124 65.9762 31.247 65.9762Z"/>
</mask>
<path fill-rule="evenodd" clip-rule="evenodd" d="M0 43.4979C0 19.5128 19.5128 0 43.5022 0C67.4873 0 87 19.5128 87 43.4979C87 67.4873 67.4873 87 43.5022 87C19.5128 87 0 67.4873 0 43.4979ZM4 41.9978C4 63.5022 21.4978 81 43.0022 81C64.5066 81 82 63.5022 82 41.9978C82 20.4935 64.5066 3 43.0022 3C21.4978 3 4 20.4935 4 41.9978ZM36.1763 42.5682C37.9272 38.8135 42.4101 37.1818 46.1645 38.9325C46.9495 39.2986 47.6173 39.8053 48.2053 40.3789L60.3342 33.6324C61.5877 32.9343 63.1735 33.3846 63.8677 34.6365C64.5619 35.8884 64.1226 37.4606 62.8636 38.1701L50.4405 45.0803C50.5569 46.3577 50.3798 47.6779 49.8001 48.9211C48.0494 52.6755 43.5665 54.3071 39.8117 52.5562C36.0573 50.8055 34.4256 46.3226 36.1763 42.5682ZM41.641 48.6332C43.235 49.3764 45.1339 48.6853 45.877 47.0917C46.6202 45.4978 45.9291 43.5989 44.3351 42.8556C42.7416 42.1125 40.8427 42.8037 40.0994 44.3976C39.3563 45.9912 40.0475 47.8901 41.641 48.6332ZM43.5009 16.3944C44.935 16.3944 46.0977 15.2317 46.0977 13.7971C46.0977 12.3627 44.935 11.2 43.5009 11.2C42.0664 11.2 40.9033 12.3627 40.9033 13.7971C40.9033 15.2317 42.0664 16.3944 43.5009 16.3944ZM30.8988 16.4784C31.6163 17.7207 31.1904 19.309 29.9487 20.0261C28.7059 20.7434 27.1176 20.3178 26.4005 19.0755C25.6835 17.8335 26.1094 16.2449 27.3511 15.5278C28.5934 14.8105 30.1822 15.2362 30.8988 16.4784ZM19.0767 26.399C17.8344 25.682 16.2461 26.1073 15.5285 27.3496C14.812 28.5919 15.2368 30.1803 16.4796 30.8976C17.7214 31.6146 19.3097 31.189 20.0273 29.947C20.7443 28.7047 20.319 27.1163 19.0767 26.399ZM11.2016 43.4996C11.2016 42.0651 12.3646 40.9024 13.7987 40.9024C15.2333 40.9024 16.3963 42.0651 16.3963 43.4996C16.3963 44.9341 15.2333 46.0968 13.7987 46.0968C12.3646 46.0968 11.2016 44.9341 11.2016 43.4996ZM73.2024 40.9024C71.7683 40.9024 70.6061 42.0651 70.6061 43.4996C70.6061 44.9341 71.7683 46.0968 73.2024 46.0968C74.6369 46.0968 75.8 44.9341 75.8 43.4996C75.8 42.0651 74.6369 40.9024 73.2024 40.9024ZM67.9249 26.399C69.1672 25.682 70.7554 26.1073 71.4727 27.3496C72.1904 28.5919 71.7644 30.1803 70.5225 30.8976C69.2798 31.6146 67.6916 31.189 66.9743 29.947C66.2575 28.7047 66.6826 27.1163 67.9249 26.399ZM59.6503 15.5278C58.4084 14.8105 56.8202 15.2362 56.1025 16.4784C55.3857 17.7207 55.8107 19.309 57.0535 20.0261C58.2954 20.7434 59.8836 20.3178 60.6013 19.0755C61.3185 17.8335 60.893 16.2449 59.6503 15.5278ZM31.247 65.9762H55.7549C57.189 65.9762 58.3517 67.1393 58.3517 68.5733C58.3517 70.0079 57.189 71.1705 55.7549 71.1705H31.247C29.8124 71.1705 28.6499 70.0079 28.6499 68.5733C28.6499 67.1393 29.8124 65.9762 31.247 65.9762Z" fill="#F8B133"/>
<path d="M36.1763 42.5682L37.5358 43.2022L36.1763 42.5682ZM48.2053 40.3789L47.1578 41.4526L47.9577 42.2331L48.9344 41.6898L48.2053 40.3789ZM60.3342 33.6324L61.0633 34.9433L61.064 34.9429L60.3342 33.6324ZM63.8677 34.6365L65.1795 33.909L65.1795 33.909L63.8677 34.6365ZM62.8636 38.1701L63.5927 39.481L63.6 39.4769L62.8636 38.1701ZM50.4405 45.0803L49.7114 43.7694L48.8581 44.244L48.9467 45.2164L50.4405 45.0803ZM49.8001 48.9211L51.1595 49.555L49.8001 48.9211ZM45.877 47.0917L47.2364 47.7257L45.877 47.0917ZM40.0994 44.3976L41.4589 45.0315L40.0994 44.3976ZM30.8988 16.4784L29.5994 17.2279L29.5999 17.2287L30.8988 16.4784ZM29.9487 20.0261L30.6985 21.3252L30.6988 21.3251L29.9487 20.0261ZM26.4005 19.0755L27.6996 18.3257L27.6996 18.3255L26.4005 19.0755ZM27.3511 15.5278L26.601 14.2288L26.601 14.2289L27.3511 15.5278ZM19.0767 26.399L19.8268 25.1L19.8266 25.0999L19.0767 26.399ZM15.5285 27.3496L14.2296 26.5994L14.2292 26.6002L15.5285 27.3496ZM16.4796 30.8976L17.2297 29.5986L17.2294 29.5984L16.4796 30.8976ZM20.0273 29.947L21.3261 30.6974L21.3264 30.6968L20.0273 29.947ZM67.9249 26.399L67.1751 25.0999L67.1749 25.1L67.9249 26.399ZM71.4727 27.3496L70.1737 28.0996L70.1739 28.1L71.4727 27.3496ZM70.5225 30.8976L71.2722 32.1968L71.2728 32.1965L70.5225 30.8976ZM66.9743 29.947L65.6751 30.6967L65.6754 30.6971L66.9743 29.947ZM59.6503 15.5278L58.9 16.8267L58.9006 16.8271L59.6503 15.5278ZM56.1025 16.4784L54.8037 15.728L54.8033 15.7287L56.1025 16.4784ZM57.0535 20.0261L57.8037 18.7272L57.8031 18.7268L57.0535 20.0261ZM60.6013 19.0755L61.9001 19.8259L61.9002 19.8257L60.6013 19.0755ZM1.5 43.4979C1.5 20.3413 20.3411 1.5 43.5022 1.5V-1.5C18.6845 -1.5 -1.5 18.6843 -1.5 43.4979H1.5ZM43.5022 1.5C66.6589 1.5 85.5 20.3412 85.5 43.4979H88.5C88.5 18.6844 68.3157 -1.5 43.5022 -1.5V1.5ZM85.5 43.4979C85.5 66.659 66.6588 85.5 43.5022 85.5V88.5C68.3158 88.5 88.5 68.3156 88.5 43.4979H85.5ZM43.5022 85.5C20.3412 85.5 1.5 66.6589 1.5 43.4979H-1.5C-1.5 68.3157 18.6844 88.5 43.5022 88.5V85.5ZM2.5 41.9978C2.5 64.3306 20.6694 82.5 43.0022 82.5V79.5C22.3263 79.5 5.5 62.6738 5.5 41.9978H2.5ZM43.0022 82.5C65.3353 82.5 83.5 64.3304 83.5 41.9978H80.5C80.5 62.674 63.678 79.5 43.0022 79.5V82.5ZM83.5 41.9978C83.5 19.6651 65.335 1.5 43.0022 1.5V4.5C63.6782 4.5 80.5 21.322 80.5 41.9978H83.5ZM43.0022 1.5C20.6696 1.5 2.5 19.6649 2.5 41.9978H5.5C5.5 21.3222 22.3261 4.5 43.0022 4.5V1.5ZM37.5358 43.2022C38.9366 40.1981 42.527 38.8914 45.5306 40.292L46.7984 37.5731C42.2932 35.4722 36.9178 37.4288 34.8169 41.9343L37.5358 43.2022ZM45.5306 40.292C46.128 40.5705 46.6598 40.9668 47.1578 41.4526L49.2528 39.3053C48.5749 38.6439 47.7711 38.0266 46.7984 37.5731L45.5306 40.292ZM48.9344 41.6898L61.0633 34.9433L59.605 32.3216L47.4761 39.0681L48.9344 41.6898ZM61.064 34.9429C61.5963 34.6465 62.2658 34.8408 62.5559 35.3639L65.1795 33.909C64.0811 31.9283 61.5792 31.2221 59.6043 32.322L61.064 34.9429ZM62.5559 35.3639C62.8505 35.8952 62.6676 36.5587 62.1271 36.8633L63.6 39.4769C65.5776 38.3624 66.2733 35.8816 65.1795 33.909L62.5559 35.3639ZM62.1344 36.8593L49.7114 43.7694L51.1696 46.3911L63.5927 39.481L62.1344 36.8593ZM48.9467 45.2164C49.0421 46.2629 48.895 47.3127 48.4406 48.2872L51.1595 49.555C51.8646 48.043 52.0718 46.4525 51.9343 44.9441L48.9467 45.2164ZM48.4406 48.2872C47.04 51.2907 43.4496 52.5976 40.4456 51.1968L39.1777 53.9157C43.6833 56.0167 49.0587 54.0603 51.1595 49.555L48.4406 48.2872ZM40.4456 51.1968C37.442 49.7962 36.1352 46.2058 37.5358 43.2022L34.8169 41.9343C32.7161 46.4395 34.6725 51.8149 39.1777 53.9157L40.4456 51.1968ZM41.0071 49.9926C43.3518 51.0859 46.1432 50.0701 47.2364 47.7257L44.5175 46.4578C44.1246 47.3004 43.1182 47.6669 42.275 47.2737L41.0071 49.9926ZM47.2364 47.7257C48.3298 45.3809 47.3138 42.5895 44.9691 41.4961L43.7012 44.2151C44.5444 44.6082 44.9107 45.6147 44.5175 46.4578L47.2364 47.7257ZM44.9691 41.4961C42.6246 40.4029 39.8333 41.419 38.74 43.7637L41.4589 45.0315C41.8521 44.1883 42.8586 43.8221 43.7012 44.2151L44.9691 41.4961ZM38.74 43.7637C37.6468 46.1081 38.6627 48.8994 41.0071 49.9926L42.275 47.2737C41.4322 46.8807 41.0659 45.8743 41.4589 45.0315L38.74 43.7637ZM43.5009 17.8944C45.7637 17.8944 47.5977 16.0598 47.5977 13.7971H44.5977C44.5977 14.4035 44.1063 14.8944 43.5009 14.8944V17.8944ZM47.5977 13.7971C47.5977 11.5344 45.7635 9.70001 43.5009 9.70001V12.7C44.1064 12.7 44.5977 13.191 44.5977 13.7971H47.5977ZM43.5009 9.70001C41.2383 9.70001 39.4033 11.5339 39.4033 13.7971H42.4033C42.4033 13.1915 42.8945 12.7 43.5009 12.7V9.70001ZM39.4033 13.7971C39.4033 16.0603 41.2382 17.8944 43.5009 17.8944V14.8944C42.8946 14.8944 42.4033 14.403 42.4033 13.7971H39.4033ZM29.5999 17.2287C29.9029 17.7533 29.7231 18.4242 29.1986 18.7271L30.6988 21.3251C32.6578 20.1939 33.3297 17.6881 32.1977 15.7282L29.5999 17.2287ZM29.1989 18.7269C28.6732 19.0304 28.0023 18.8501 27.6996 18.3257L25.1014 19.8254C26.2328 21.7855 28.7386 22.4564 30.6985 21.3252L29.1989 18.7269ZM27.6996 18.3255C27.3968 17.8011 27.5767 17.1297 28.1012 16.8268L26.601 14.2289C24.6421 15.3601 23.9702 17.8659 25.1015 19.8255L27.6996 18.3255ZM28.1011 16.8268C28.6263 16.5236 29.2972 16.704 29.5994 17.2279L32.1981 15.7289C31.0672 13.7684 28.5605 13.0974 26.601 14.2288L28.1011 16.8268ZM19.8266 25.0999C17.8671 23.9689 15.3615 24.6398 14.2296 26.5994L16.8274 28.0999C17.1307 27.5749 17.8018 27.3951 18.3269 27.6982L19.8266 25.0999ZM14.2292 26.6002C13.0993 28.5591 13.7688 31.0649 15.7298 32.1967L17.2294 29.5984C16.7048 29.2956 16.5247 28.6247 16.8279 28.0991L14.2292 26.6002ZM15.7295 32.1965C17.689 33.328 20.1945 32.6561 21.3261 30.6974L18.7285 29.1966C18.425 29.7218 17.7537 29.9011 17.2297 29.5986L15.7295 32.1965ZM21.3264 30.6968C22.4574 28.7374 21.7867 26.2317 19.8268 25.1L18.3267 27.698C18.8514 28.001 19.0313 28.672 18.7282 29.1971L21.3264 30.6968ZM12.7016 43.4996C12.7016 42.8936 13.1929 42.4024 13.7987 42.4024V39.4024C11.5363 39.4024 9.70156 41.2366 9.70156 43.4996H12.7016ZM13.7987 42.4024C14.4051 42.4024 14.8963 42.8938 14.8963 43.4996H17.8963C17.8963 41.2364 16.0614 39.4024 13.7987 39.4024V42.4024ZM14.8963 43.4996C14.8963 44.1054 14.4051 44.5968 13.7987 44.5968V47.5968C16.0614 47.5968 17.8963 45.7628 17.8963 43.4996H14.8963ZM13.7987 44.5968C13.1929 44.5968 12.7016 44.1056 12.7016 43.4996H9.70156C9.70156 45.7627 11.5363 47.5968 13.7987 47.5968V44.5968ZM73.2024 39.4024C70.9394 39.4024 69.1061 41.2372 69.1061 43.4996H72.1061C72.1061 42.893 72.5972 42.4024 73.2024 42.4024V39.4024ZM69.1061 43.4996C69.1061 45.7621 70.9394 47.5968 73.2024 47.5968V44.5968C72.5972 44.5968 72.1061 44.1062 72.1061 43.4996H69.1061ZM73.2024 47.5968C75.465 47.5968 77.3 45.7629 77.3 43.4996H74.3C74.3 44.1054 73.8088 44.5968 73.2024 44.5968V47.5968ZM77.3 43.4996C77.3 41.2363 75.465 39.4024 73.2024 39.4024V42.4024C73.8088 42.4024 74.3 42.8938 74.3 43.4996H77.3ZM68.6747 27.6982C69.1999 27.3951 69.8707 27.575 70.1737 28.0996L72.7717 26.5996C71.6401 24.6397 69.1346 23.9689 67.1751 25.0999L68.6747 27.6982ZM70.1739 28.1C70.4768 28.6244 70.2973 29.2954 69.7723 29.5986L71.2728 32.1965C73.2316 31.0651 73.9039 28.5594 72.7715 26.5993L70.1739 28.1ZM69.7729 29.5983C69.2473 29.9016 68.5762 29.7214 68.2733 29.1968L65.6754 30.6971C66.807 32.6565 69.3123 33.3276 71.2722 32.1968L69.7729 29.5983ZM68.2736 29.1973C67.9704 28.6719 68.1505 28.0009 68.675 27.6981L67.1749 25.1C65.2147 26.2318 64.5447 28.7375 65.6751 30.6967L68.2736 29.1973ZM60.4005 14.2289C58.4407 13.097 55.9354 13.7691 54.8037 15.728L57.4013 17.2288C57.705 16.7032 58.376 16.5241 58.9 16.8267L60.4005 14.2289ZM54.8033 15.7287C53.6728 17.6879 54.3428 20.1939 56.3039 21.3253L57.8031 18.7268C57.2786 18.4242 57.0985 17.7535 57.4017 17.2281L54.8033 15.7287ZM56.3033 21.325C58.263 22.4569 60.7683 21.7849 61.9001 19.8259L59.3024 18.3252C58.9988 18.8507 58.3277 19.0299 57.8037 18.7272L56.3033 21.325ZM61.9002 19.8257C63.0318 17.8661 62.3605 15.3598 60.3999 14.2286L58.9006 16.8271C59.4255 17.1299 59.6052 17.8008 59.3023 18.3254L61.9002 19.8257ZM31.247 67.4762H55.7549V64.4762H31.247V67.4762ZM55.7549 67.4762C56.3602 67.4762 56.8517 67.9674 56.8517 68.5733H59.8517C59.8517 66.3112 58.0177 64.4762 55.7549 64.4762V67.4762ZM56.8517 68.5733C56.8517 69.1796 56.3604 69.6705 55.7549 69.6705V72.6705C58.0176 72.6705 59.8517 70.8361 59.8517 68.5733H56.8517ZM55.7549 69.6705H31.247V72.6705H55.7549V69.6705ZM31.247 69.6705C30.6409 69.6705 30.1499 69.1796 30.1499 68.5733H27.1499C27.1499 70.8362 28.9838 72.6705 31.247 72.6705V69.6705ZM30.1499 68.5733C30.1499 67.9674 30.6411 67.4762 31.247 67.4762V64.4762C28.9836 64.4762 27.1499 66.3111 27.1499 68.5733H30.1499Z" fill="#222222" mask="url(#path-1-inside-1)"/>
</svg>
